# xmcd CD database file
#
# Track frame offsets:
#	150
#	18938
#	52430
#	78408
#	98643
#	124523
#	155518
#	182978
#	199628
#	220813
#	237205
#
# Disc length: 3483 seconds
#
# Revision: 0
# Processed by: cddbd v1.5.2PL0 Copyright (c) Steve Scherf et al.
# Submitted via: CDex 1.70beta2
#
DISCID=900d990b
DTITLE=Azymuth - Azimuth re-mastered cd2
DYEAR=2007
DGENRE=Jazz
TTITLE0=Melô Dos Dois Bicudos - Harmonic 313
TTITLE1=Wait For My Turn - Spiritual south
TTITLE2=Linha Do Horizonte - Mr Beatnick
TTITLE3=Montreal City - Volcov
TTITLE4=Estrada Dos Deuses - Recloose
TTITLE5=Seems Like This - As One
TTITLE6=Periscópio - Marc Mac for 4 Hero
TTITLE7=Morning - Peanut Butter Wolf
TTITLE8=Caca A Raposa - DJ Venom
TTITLE9=Linha Do Horizonte - Kashmeer Brothers
TTITLE10=Wait For My Turn - Yam Who?
EXTD=YEAR: 2007
EXTT0=
EXTT1=
EXTT2=
EXTT3=
EXTT4=
EXTT5=
EXTT6=
EXTT7=
EXTT8=
EXTT9=
EXTT10=
PLAYORDER=
